<svg width="24" height="24" viewBox="0 0 24 24" xmlns="http://www.w3.org/2000/svg"><g fill="none" stroke="currentColor" stroke-linecap="round" stroke-linejoin="round"><path d="M18.391 17.993c2.199 0 4.109-1.79 4.109-4.016S20.59 9.96 18.391 9.96h-.264c-.702-2.308-2.742-4.017-5.114-4.39c-2.383-.373-4.861.633-6.263 2.605h-.228c-2.687 0-5.022 2.188-5.022 4.909s2.335 4.908 5.022 4.908z"/><path d="M6.75 8.176a6.9 6.9 0 0 1 3.424.893l11.87 6.675"/><path d="M18.127 9.96a8 8 0 0 0-3.114.634L2.468 15.95"/></g></svg>